<svg xmlns="http://www.w3.org/2000/svg" width="75" height="72" fill="none"><g fill="#81B3D2" filter="url(#a)"><path d="M29.7 65h16V41.2h-16V65Zm2.8999-20.9001H42.7v18H32.5999v-18Z"/><path d="m72.8 39.3 2.1-2.1-9.9-9.9V0H51.0999v13.6L37.5 0 .199951 37.2l2.099999 2.1L10.1 31.5v37.6H6.09995V72H70v-2.9h-5.1V31.5l7.9 7.8ZM62 69.1H13V28.5L37.5 4.1 62 28.5v40.6Zm0-44.7-7.9001-7.9V2.9H62v21.5Z"/><path d="M29.8999 27.1c0 4.3 3.5 7.7 7.7 7.7 4.3 0 7.8-3.5 7.8-7.7 0-4.3-3.5-7.7-7.8-7.7-4.2 0-7.7 3.4-7.7 7.7Zm7.8-5c2.7 0 5 2.2 5 4.9s-2.2 4.9-5 4.9c-2.7 0-5-2.2-5-4.9s2.2-4.9 5-4.9ZM20.1 41.2h-3v3.8999h3V41.2ZM26 41.2h-3v3.8999h3V41.2ZM20.1 47.2h-3v3.8999h3V47.2ZM26 47.2h-3v3.8999h3V47.2ZM52 41.2h-3v3.8999h3V41.2ZM57.8999 41.2h-3v3.8999h3V41.2ZM52 47.2h-3v3.8999h3V47.2ZM57.8999 47.2h-3v3.8999h3V47.2Z"/></g><defs><filter id="a" width="82.7" height="80" x="-3.80005" y="0" color-interpolation-filters="sRGB" filterUnits="userSpaceOnUse"><feFlood flood-opacity="0" result="BackgroundImageFix"/><feColorMatrix in="SourceAlpha" result="hardAlpha" values="0 0 0 0 0 0 0 0 0 0 0 0 0 0 0 0 0 0 127 0"/><feOffset dy="4"/><feGaussianBlur stdDeviation="2"/><feComposite in2="hardAlpha" operator="out"/><feColorMatrix values="0 0 0 0 0 0 0 0 0 0 0 0 0 0 0 0 0 0 0.25 0"/><feBlend in2="BackgroundImageFix" result="effect1_dropShadow_31915_399"/><feBlend in="SourceGraphic" in2="effect1_dropShadow_31915_399" result="shape"/></filter></defs></svg>